<?xml version="1.0" encoding="utf-8"?>
<!-- Generator: Adobe Illustrator 18.0.0, SVG Export Plug-In . SVG Version: 6.00 Build 0)  -->
<!DOCTYPE svg PUBLIC "-//W3C//DTD SVG 1.1//EN" "http://www.w3.org/Graphics/SVG/1.1/DTD/svg11.dtd">
<svg version="1.1" id="Layer_1" xmlns="http://www.w3.org/2000/svg" xmlns:xlink="http://www.w3.org/1999/xlink" x="0px" y="0px"
	 width="30px" height="30px" viewBox="0 0 30 30" enable-background="new 0 0 30 30" xml:space="preserve">
<g>
	<g>
		<g>
			<path fill-rule="evenodd" clip-rule="evenodd" fill="#ED2D30" d="M15,29.8C6.9,29.8,0.2,23.1,0.2,15S6.9,0.2,15,0.2
				S29.8,6.9,29.8,15S23.1,29.8,15,29.8z"/>
			<g>
				<path fill="#971B1E" d="M15,0.5C23,0.5,29.5,7,29.5,15c0,8-6.5,14.5-14.5,14.5S0.5,23,0.5,15C0.5,7,7,0.5,15,0.5 M15,0
					C6.7,0,0,6.7,0,15c0,8.3,6.7,15,15,15s15-6.7,15-15C30,6.7,23.3,0,15,0L15,0z"/>
			</g>
		</g>
		<g>
			<path fill-rule="evenodd" clip-rule="evenodd" fill="#8A181A" d="M15,27.5C8.1,27.5,2.5,21.9,2.5,15S8.1,2.5,15,2.5
				S27.5,8.1,27.5,15S21.9,27.5,15,27.5z"/>
			<g>
				<path fill="#971B1E" d="M15,2.8c6.7,0,12.2,5.5,12.2,12.2c0,6.7-5.5,12.2-12.2,12.2C8.3,27.2,2.8,21.7,2.8,15
					C2.8,8.3,8.3,2.8,15,2.8 M15,2.3C8,2.3,2.3,8,2.3,15C2.3,22,8,27.7,15,27.7c7,0,12.7-5.7,12.7-12.7C27.7,8,22,2.3,15,2.3L15,2.3
					z"/>
			</g>
		</g>
	</g>
	<g>
		<g>
			<g>
				<path fill-rule="evenodd" clip-rule="evenodd" fill="#E2231A" d="M15.8,28.2c-1.7-4-3.7-8.2-5.5-11.9l-0.1-0.1c0,0-0.2,0-0.2,0
					c-0.2,0-0.3,0-0.5,0l-0.2,0.1l0.1,0.2c0.6,2.6,2,6.9,3,9.4C8.7,25,6,24.3,3.6,23.5c-0.6-6-1-12.7-1.3-19.4
					c5.2-0.9,14.6-2.3,20.3-2.5c1.6,3.4,3.1,7.9,3.9,10.3c0,0.1,0.1,0.3,0.1,0.4c0.1,0.3,0.3,0.9,0.3,1c-0.2,0.4-3.3,2.9-3.9,2.9
					c-2,0-4.9-0.1-6.6-0.3l-0.8-0.1l0.6,0.5c1.4,1.1,2.7,2.2,4.1,3.4c2.7,2.2,5.5,4.5,8.3,6.8C24.4,27.3,20.4,27.9,15.8,28.2z
					 M9.4,8.3c0,1,0.1,2,0.3,3l0,0.2l0.2,0c1.7-0.2,2.9-0.5,4.3-0.9l0.1,0l0-0.1c0.1-0.4,0.1-0.9,0.1-1.5l0-0.2l-0.2-0.1
					C13.1,8.2,11.1,8,9.7,8L9.4,8L9.4,8.3z"/>
			</g>
			<g>
				<path fill="#630D0D" d="M22.5,1.8c1.6,3.4,3.1,7.8,3.8,10.1c0,0.1,0.1,0.3,0.1,0.4c0.1,0.2,0.2,0.7,0.3,0.9
					c-0.4,0.6-3.1,2.6-3.6,2.7c-2,0-4.8-0.1-6.6-0.3l-1.6-0.1l1.2,1c1.4,1.1,2.7,2.2,4.1,3.4c2.6,2.1,5.2,4.3,7.9,6.5
					c-4.1,0.8-7.9,1.2-12.2,1.6c-1.7-3.9-3.6-8.1-5.5-11.8l-0.1-0.3l-0.3,0c0,0-0.1,0-0.1,0c-0.1,0-0.3,0-0.5,0.1L9,16l0.1,0.5
					C9.7,19,11,23,12,25.5c-3.4-0.8-5.9-1.4-8.1-2.2c-0.6-5.9-1-12.4-1.3-19C7.8,3.4,16.9,2,22.5,1.8 M9.6,11.7l0.5-0.1
					c1.7-0.2,3-0.5,4.3-0.9l0.3-0.1l0.1-0.3c0.1-0.4,0.1-0.9,0.1-1.6l0-0.4l-0.4-0.1c-1.4-0.4-3.4-0.6-4.8-0.6l-0.5,0l0,0.5
					c0,1,0.1,2,0.3,3L9.6,11.7 M22.8,1.3C17.3,1.4,8.2,2.8,2.1,3.8c0.3,6.5,0.7,13.3,1.3,19.8c2.8,1,6,1.8,9.4,2.5
					c-1-2.3-2.6-6.9-3.2-9.8c0.1,0,0.2,0,0.4,0c0,0,0.1,0,0.1,0c1.9,3.8,3.9,8.1,5.6,12.1c4.3-0.3,8.6-0.8,13.6-1.8
					c-4.4-3.7-8.7-7.1-12.9-10.5c1.8,0.1,4.6,0.3,6.6,0.3c0,0,0,0,0,0c0.7,0,4-2.6,4.1-3.1c0-0.2-0.3-1.1-0.4-1.5
					C25.7,8.3,24.2,4.2,22.8,1.3L22.8,1.3z M10,11.2c-0.2-0.8-0.3-1.9-0.3-2.9c1.6,0,3.5,0.2,4.7,0.6c0,0.5,0,1.1-0.1,1.5
					C12.8,10.7,11.5,11,10,11.2L10,11.2z"/>
			</g>
		</g>
		<path fill-rule="evenodd" clip-rule="evenodd" fill="#FFFFFF" stroke="#AC162C" stroke-width="0.5" stroke-miterlimit="10" d="
			M22.8,14.3c0.8-0.4,1.3-0.9,1.7-1.7C24,9.9,23,7,21.4,3.4C15.1,3.8,9.3,4.5,4.1,5.5C4.4,10.5,5,16.8,5.6,22
			c1.1,0.4,3.1,1.2,4.2,1.5c-0.8-2.4-1.7-6.3-2-8.2c1-0.1,2-0.1,3.1-0.2c1.8,3.1,4,7.1,5.7,10.6c2.2-0.2,4.2-0.4,6.3-0.8
			c-1.6-1.6-3-3-4.3-4.3c-1.9-1.9-3.6-3.5-5.1-5.2l-0.4-0.4c2.2-0.1,4.5-0.3,6.8-0.4C20.8,14.5,21.8,14.4,22.8,14.3z M8.2,7.4l0-0.4
			l0.4,0c0.5,0,1.1-0.1,1.7-0.1c1.9,0,3.7,0.2,5.4,0.7l0.3,0.1L16,7.9c0.2,1,0.3,2.4,0.1,3.5L16,11.8l-0.3,0.1
			c-2.1,0.4-4.3,0.8-6.5,1.1L8.7,13l-0.1-0.4C8.3,10.6,8.2,9.1,8.2,7.4z"/>
	</g>
</g>
</svg>
