<?xml version="1.0" encoding="utf-8"?>
<!-- Generator: Adobe Illustrator 18.0.0, SVG Export Plug-In . SVG Version: 6.00 Build 0)  -->
<!DOCTYPE svg PUBLIC "-//W3C//DTD SVG 1.1//EN" "http://www.w3.org/Graphics/SVG/1.1/DTD/svg11.dtd">
<svg version="1.1" id="Layer_1" xmlns="http://www.w3.org/2000/svg" xmlns:xlink="http://www.w3.org/1999/xlink" x="0px" y="0px"
	 width="120px" height="30px" viewBox="0 0 120 30" enable-background="new 0 0 120 30" xml:space="preserve">
<g>
	<g>
		<path fill="#981B1E" d="M25.1,6.1c0,0.1,0.1,0.2,0.2,0.3c0.2,0.1,0.4,0.1,0.8,0.1h0c0.8,0,1.9-0.2,2.5-0.3l0.1,0
			c1.2-0.2,3-0.3,4.5-0.3c1,0,1.8,0.1,2.5,0.2c0,0,0,0,0.1,0l3.4,0.2c0.1,0,0.2,0,0.3-0.1c0.3-0.2,0.6-0.6,0.8-2.1
			c0.1-0.8,0.2-1.8,0.2-2.4c0-0.2-0.1-0.4-0.3-0.5c-0.5-0.3-1.4-0.4-2.9-0.4c-0.6,0-1.2,0-1.7,0c-0.3,0-0.6,0-0.9,0L31,0.9
			c0,0,0,0,0,0l-3.3,0.2c0,0,0,0-0.1,0c-0.5,0.1-1.1,0.2-1.6,0.2c-0.6,0.1-1.2,0.1-1.8,0.2c-0.1,0-0.1,0-0.2,0.1l-0.1,0.1
			c-0.2,0.1-0.3,0.3-0.2,0.5c0,1.1,0.5,2,1,2.9C24.8,5.4,25,5.8,25.1,6.1z"/>
		<path fill="#981B1E" d="M119.9,21.3c-0.5-0.7-1.8-1.2-3.4-1.9c-0.3-0.1-0.6-0.2-0.8-0.3c-1.4-0.6-2.8-1.2-4.2-1.7
			c-0.9-0.4-1.9-0.7-2.8-1.1l-2.5-1c0.9-0.7,1.8-1.5,2.7-2.2c2.2-1.6,4.7-3.3,7.8-5.3c0.2-0.1,0.3-0.3,0.3-0.5V7.2
			c0-0.1-0.1-0.3-0.2-0.4c-0.5-0.5-1.8-0.8-3.6-1.3c-0.4-0.1-0.8-0.2-1-0.3c-1.3-0.4-2.7-0.8-4.1-1.1c-0.4-0.1-0.8-0.2-1.3-0.3
			c0,0,0,0,0,0l-1.7-0.3c-0.1,0-0.1,0-0.2,0c-0.7,0.1-1.3,0.7-1.9,1.2c-0.2,0.2-0.4,0.3-0.5,0.4c-0.2,0.2-0.4,0.3-0.6,0.5
			c-0.9,0.7-1.8,1.3-2.5,2.2l-1.9,2c-0.3-0.4-0.5-1-0.7-1.5c-0.1-0.4-0.2-0.7-0.4-1.1C96.5,7,96.3,6.9,96,6.9c0,0,0,0,0,0
			c-1.7,0-4.3,0.8-5.4,1.2c-0.3-0.4-0.6-1-0.8-1.6c-0.5-1.1-1-2.2-1.8-2.7c-0.5-0.4-1.3-0.4-2-0.4c-0.3,0-0.7,0-0.9-0.1
			c0,0,0,0-0.1,0l-3.5-0.1c0,0,0,0,0,0c-0.3,0-0.7,0-1,0c-0.3,0-0.7,0-1,0c-1.2,0-2.4,0-3.6,0.2c-0.3,0-0.7,0.1-1,0.1
			c-1,0-2.1,0.1-2.7,0.7c-0.6,0.7-1,1.6-1.4,2.5L71,3.7C71,3.1,71.2,2,71,1.3C70.9,1.1,70.8,1,70.6,1c-1-0.2-2-0.3-3-0.4
			c-0.8-0.1-1.6-0.1-2.3-0.3c-1.6-0.3-3.1-0.4-4.6-0.4c-0.1,0-0.2,0-0.3,0c-0.2,0-0.5,0.2-0.5,0.4c-0.3,1.1-0.2,2.8-0.1,4.3
			c0,0.2,0,0.4,0,0.6c-0.8-0.7-1.6-1.4-2.4-1.6c0,0-0.1,0-0.1,0l-4.2,0.1c0,0,0,0,0,0c-0.7,0-1.3,0-2,0.1c-1.9,0.1-3.8,0.1-5.6,0.4
			c-0.4,0.1-0.8,0.1-1.2,0.1c-0.7,0-1.4,0.1-2,0.3c-0.2,0.1-0.3,0.2-0.4,0.4c-0.2,1.4-0.1,2.9-0.1,4.3c-0.7-1.8-1-2-1.1-2.1
			c-0.7-0.5-1.9-0.5-3-0.6c-0.5,0-1,0-1.4-0.1c0,0,0,0-0.1,0l-3.5-0.1c0,0,0,0,0,0h0c-2.1,0-4.4,0-6.3,0.4C26,6.9,25.7,6.9,25.4,7
			c-0.8,0.1-1.6,0.2-2.3,0.6c0,0-0.1,0.1-0.1,0.1l-0.3-1.1c0,0,0,0,0,0l-1.1-3.1c-0.1-0.2-0.2-0.3-0.3-0.3C21,3.1,20.6,3,20.2,3
			c-1.7,0-5,0.6-5.2,0.6C12.6,4,10,4.3,7.5,4.5C5.2,4.8,2.8,5,0.6,5.3c-0.2,0-0.3,0.1-0.4,0.3C0,5.9-0.1,6.5,0.1,8.6
			c0.1,1.1,0.3,2.3,0.4,2.9L1,17l0.5,7.7c0,0.2,0.2,0.4,0.4,0.5l4.8,1.1l4.2,1.2c0.2,0.1,0.4,0,0.6-0.1c0.1-0.1,0.2-0.4,0.1-0.6
			l-2-5.7c0.9,1.8,1.7,3.7,2.6,5.8l1,2.2c0,0.1,0.1,0.2,0.2,0.3c0.2,0.1,0.4,0.1,0.7,0.1c0.7,0,1.8-0.3,2.6-0.5
			c0.2-0.1,0.4-0.1,0.6-0.1c2.7-0.6,5.7-0.9,9.1-0.9c0.2,0,0.3,0,0.5,0c0.1,0,0.3-0.1,0.4-0.2c0.1-0.1,0.2-0.2,0.2-0.4v0
			c0-0.2-0.1-0.3-0.2-0.4l-1.6-1.3l1.3,0c0,0,0,0,0,0l3.9-0.1l2.4,0c0,0,0,0,0,0l6.1-0.6c0,0,0,0,0,0l1.5-0.2
			c-0.1,0.6-0.1,1.3,0.1,1.9c0,0,0,0.1,0.1,0.1c0.2,0.2,0.5,0.3,1.1,0.3c0.2,0,0.3,0,0.5,0l3.7-0.3l3.7-0.2l6.9-0.3l0,0
			c0.4,0,0.7,0,1,0c0.3,0,0.6,0,0.9,0c0.9,0,1.7-0.1,2.4-0.5c0.1,0.3,0.2,0.6,0.4,0.9c0.1,0,0.1,0.1,0.2,0.1c0.1,0,0.2,0,0.4,0
			c0.6,0,1.7-0.3,2.5-0.6c0.3-0.1,0.5-0.2,0.7-0.2c2.4-0.6,4.9-1,7.2-1.2l1.5,1.5c0.1,0.1,0.1,0.1,0.2,0.1c0.2,0.1,0.4,0.1,0.8,0.1
			c1.1,0,3.3-0.2,3.8-0.3c0.6-0.1,1.6-0.2,2.5-0.2c0.8,0,1.5,0,2,0.1c0,0,0.1,0,0.1,0h1.4l3.1,0.1c0.1,0,0.1,0,0.2,0
			c0.5-0.1,1-0.6,1.7-1.5l2.2,0.6c0.8,0.2,1.6,0.5,2.4,0.7c0.9,0.2,1.7,0.5,2.5,0.7c0.1,0,0.2,0,0.3,0c0.6-0.1,0.8-0.7,0.9-1.1
			c0-0.1,0.1-0.2,0.1-0.2l1.3-2.5c1.1,0.8,2.2,1.8,3.3,2.7c0.7,0.6,1.4,1.2,2.1,1.8c0.3,0.2,0.6,0.5,0.9,0.9
			c0.6,0.6,1.2,1.3,1.9,1.6c0,0,0,0,0,0c0.1,0,0.1,0,0.2,0c0,0,0,0,0,0c0.5,0,1.2-0.5,2.6-1.6c0.2-0.1,0.3-0.3,0.4-0.3l5.7-4
			c0.2-0.1,0.5-0.3,0.8-0.5c0.9-0.5,2-1.1,2.6-1.8C120,21.8,120,21.5,119.9,21.3z M12,11.4c-0.6,0.2-2.4,0.6-3.2,0.8
			c-0.1-0.5-0.2-1.3-0.2-1.7c2.3,0,3.2,0.2,3.5,0.4C12.1,11,12.1,11.3,12,11.4z M15.9,18l3.1,0.1l1.3,0.1c0,0.3,0,0.8,0,1.1
			c0,0.8,0,1.3,0.1,1.6c0.1,0.4,0.4,0.8,0.8,1.3L15.9,18z M33.3,17.7c-0.1,0-0.2,0.1-0.3,0.1c-1.4,0.6-2.8,1.1-3.3,1.2
			c0-0.1-0.1-0.3-0.1-0.4c0-0.1,0-0.2-0.1-0.3c-0.4-1.4-0.7-3.1-0.5-3.8c0.1,0,0.2,0,0.3,0c1.2,0,2.3,0.1,3.2,0.2
			c0.4,0.7,1.1,2.4,1.2,3C33.5,17.6,33.4,17.7,33.3,17.7z M52,19.9c0,0.1,0,0.2,0,0.4c-0.4,0.1-1.2,0.2-1.7,0.2c-0.1,0-0.2,0-0.2,0
			c-0.1-0.3-0.2-1.3-0.2-1.8c0.2,0,0.4,0,0.5-0.1c0.5,0,1-0.1,1.4-0.2h0.3C52.1,18.9,52,19.4,52,19.9z M53.3,11.7
			c-0.3,0.2-1.6,0.4-2.2,0.5c-0.3,0-0.5,0.1-0.7,0.1c-0.1-0.2-0.1-0.5-0.1-0.8c0-0.3,0-0.6-0.1-0.8V10c2,0.1,2.8,0.2,3.2,0.4
			C53.4,10.7,53.4,11.4,53.3,11.7z M69.8,19.6l0.3-4l0.1-1.7l0.2,1.9c0,0,0,0,0,0l0.5,3.7L69.8,19.6z M79.7,19.4
			c-0.2-0.2-0.5-0.7-0.8-1.7c-0.4-0.9-0.7-1.9-0.9-2.6l-0.1-0.3c-0.1-0.4-0.3-0.9-0.3-1.3c0.3-0.4,1.6-0.9,2.3-1.2
			c0.4-0.2,0.8-0.3,1.1-0.5c0.2,0.3,0.3,0.7,0.4,1c0,0.2,0.1,0.3,0.1,0.5c0.1,0.2,0.1,0.4,0.2,0.6c0.4,1.3,0.9,2.8,1,4.4L79.7,19.4z
			"/>
	</g>
	<g>
		<linearGradient id="SVGID_1_" gradientUnits="userSpaceOnUse" x1="60.0002" y1="0.1875" x2="60.0002" y2="29.3547">
			<stop  offset="0" style="stop-color:#ED2927"/>
			<stop  offset="1" style="stop-color:#BE2026"/>
		</linearGradient>
		<path fill-rule="evenodd" clip-rule="evenodd" fill="url(#SVGID_1_)" d="M115.6,19.4c-2.3-1-4.6-1.9-7-2.8
			c-1.1-0.4-2.2-0.9-3.3-1.3c0,0,0-0.1,0-0.1c1.1-0.9,2.2-1.9,3.4-2.8c2.5-1.9,5.2-3.7,7.9-5.4V7c-0.6-0.6-3.4-1.2-4.4-1.5
			c-1.7-0.5-3.5-0.9-5.4-1.4c-0.6-0.1-1.1-0.2-1.7-0.3c-0.8,0.1-1.5,1.1-2.1,1.5c-1,0.8-2.2,1.6-3,2.6c-0.8,0.8-1.5,1.7-2.3,2.5
			c-0.9-0.7-1.1-2.1-1.6-3.2c-1.6,0-4.2,0.8-5.6,1.3c-1-1-1.6-3.7-2.7-4.5c-0.6-0.4-1.8-0.2-2.7-0.3c-1.2,0-2.3-0.1-3.5-0.1
			c-1.9,0-3.8-0.1-5.5,0.2c-1.1,0.2-2.8-0.1-3.4,0.6c-1,1.2-1.7,3-2,4.9c0,1,0.1,2,0.1,2.9c0.1,1.1,0.2,2.3,0.3,3.4
			c0.2,1.4,0.4,2.9,0.5,4.3c-0.7,0-1.5,0.1-2.2,0.1c0.1-1.5,0.2-3.1,0.3-4.6c0.1-1.1,0.2-2.3,0.3-3.4c0.1-1.7,0.3-3.5,0.4-5.2
			c0.1-1.1,0.2-2.2,0.2-3.3c0.1-0.6,0.2-1.6,0-2.1c-1.7-0.4-3.5-0.4-5.4-0.7c-1.5-0.3-3.1-0.4-4.9-0.4c-0.4,1.5,0,4.4,0,6h0
			c-0.8-0.6-2.1-2-3.1-2.3C55.8,4,54.3,4,52.9,4c-2.6,0.1-5.1,0.1-7.5,0.5c-1.1,0.2-2.2,0.1-3.1,0.4c-0.3,2.6,0.1,5.2,0.1,7.8h0
			c-0.1-0.8-1.7-4.9-2.1-5.2c-0.8-0.6-2.9-0.4-4.2-0.6c-1.2,0-2.3-0.1-3.5-0.1c-2.2,0-4.3,0-6.2,0.3c-1,0.2-2.2,0.1-2.9,0.6
			c-0.3,0.2-0.4,0.7-0.5,1c0,0,0,0.1,0,0.1c-0.2-0.8-0.5-1.5-0.7-2.3c-0.4-1-0.8-2-1.1-3.1c-0.9-0.3-4.8,0.3-5.9,0.5
			c-4.8,0.8-9.9,1-14.5,1.7c-0.3,0.7,0.3,4.6,0.4,5.5c0.2,1.9,0.3,3.7,0.5,5.6c0.2,2.6,0.4,5.2,0.5,7.7c1.6,0.4,3.2,0.7,4.9,1.1
			c1.4,0.4,2.8,0.8,4.2,1.2C10,23.8,9,20.7,7.9,17.6c0.3,0,0.5-0.1,0.8-0.1c0.4,0.8,0.8,1.7,1.1,2.5c1.1,2.1,2,4.2,2.9,6.4
			c0.3,0.7,0.6,1.5,1,2.2c0.5,0.3,2.7-0.4,3.4-0.5c2.9-0.6,6.2-0.9,9.7-0.9v0c-1-0.8-1.9-1.5-2.9-2.3c-3.2-2.6-6.5-5.2-9.7-7.8
			c1.6,0.1,3.2,0.2,4.8,0.2c0.5,0.1,1.1,0.1,1.6,0.2c0.3,0.2,0,2.4,0.2,3c0.2,0.8,1.8,2.4,2.4,2.9c0.6,0.5,1.3,1.3,2,1.6
			c0.5,0,1,0,1.5,0c1.3,0,2.6-0.1,3.9-0.1c0.8,0,1.6,0,2.4,0c2-0.2,4.1-0.4,6.1-0.6c0.7-0.1,1.5-0.2,2.2-0.2c0,0.7-0.2,1.7,0,2.3
			c0.1,0.2,0.8,0.2,1.1,0.1c1.2-0.1,2.5-0.2,3.7-0.3c1.2-0.1,2.5-0.2,3.7-0.2c2.3-0.1,4.6-0.2,6.9-0.3c2.1,0,4,0.4,4.7-1.1
			c0,0,0.1,0,0.1,0c0.2,0.5,0,1.4,0.4,1.7c0.6,0.2,2.6-0.6,3.3-0.7c2.4-0.6,5-1.1,7.5-1.3c0.6,0.6,1.1,1.1,1.7,1.7
			c0.5,0.2,3.6-0.2,4.3-0.3c1.2-0.2,3.3-0.2,4.6,0h1.4c1,0,2,0.1,3.1,0.1c0.5-0.2,1.3-1.1,1.6-1.6c0.8,0.2,1.7,0.4,2.5,0.7
			c1.7,0.5,3.3,0.9,4.9,1.4c0.4-0.1,0.5-0.7,0.6-1c0.5-1,1-2,1.6-3.1c2.1,1.5,4,3.2,5.9,4.8c0.9,0.7,1.6,1.9,2.7,2.4
			c0.4,0.1,2.3-1.5,2.8-1.8c1.9-1.3,3.8-2.7,5.7-4c0.9-0.6,2.6-1.4,3.3-2.2C118.8,20.6,116.6,19.9,115.6,19.4z M12.5,11.6
			c-0.1,0.2-3.7,1-4.1,1c-0.1-0.4-0.5-2.3-0.3-2.7c0,0,0.1-0.1,0.1-0.1c1.2,0,3.5,0,4.3,0.5C12.7,10.4,12.6,11.4,12.5,11.6z
			 M34.1,17.6c-0.1,0.2-0.7,0.4-0.9,0.5c-0.5,0.2-3.3,1.3-3.7,1.2c-0.3-0.1-0.4-0.8-0.5-1.1c-0.2-0.8-0.9-3.4-0.5-4.4
			c0.1-0.2,0.4-0.1,0.7-0.2c1.3,0,2.5,0.1,3.6,0.3C33.1,14.3,34.4,17,34.1,17.6z M52.5,20.5c-0.3,0.2-2.3,0.5-2.8,0.3
			c-0.4-0.3-0.5-2.2-0.3-2.8c0.7-0.2,1.6-0.1,2.3-0.4h0.9C52.7,18.6,52.5,19.6,52.5,20.5z M53.7,11.8c-0.3,0.5-2.7,0.7-3.5,0.9
			c-0.2,0-0.2,0-0.2-0.1c-0.4-0.4-0.2-1.4-0.4-2.1V9.3c0.1,0,0.1,0,0.2,0c1.1,0,3.2,0.1,3.9,0.5C54.1,10,53.9,11.5,53.7,11.8z
			 M83.3,18.7c-1.2,0.4-2.5,0.7-3.7,1.1c-0.9-0.7-1.8-3.6-2.1-4.9c-0.1-0.5-0.4-1.2-0.3-1.7c0.4-0.9,3.1-1.5,4.1-2.1h0.1
			c0.5,0.4,0.6,1.3,0.8,2C82.6,14.7,83.3,16.6,83.3,18.7z M28.6,5.5c1.8-0.3,5.2-0.5,7.2-0.2c1.1,0.1,2.3,0.1,3.4,0.2
			c0.5-0.3,0.8-3,0.8-4c-0.9-0.5-3.8-0.3-5.2-0.3c-1.3,0-2.6,0.1-3.9,0.1c-1.1,0.1-2.2,0.1-3.3,0.2c-1.2,0.2-2.4,0.3-3.4,0.5
			c0,0-0.1,0.1-0.1,0.1c0.1,1.5,1,2.6,1.5,3.8C26,5.9,28,5.6,28.6,5.5z"/>
	</g>
	<g>
		<path fill="#981B1E" d="M25.9,4.3c0.1,0.2,0.2,0.4,0.3,0.6c0,0.1,0.1,0.2,0.2,0.2c0.2,0.1,0.4,0.1,0.7,0.1h0
			c0.5,0,1.1-0.1,1.5-0.2C28.8,5,28.9,5,29,4.9l5.2-0.2l2.7,0c0.1,0,0.2,0,0.2-0.1c0.1-0.1,0.3-0.2,0.5-1.1c0.1-0.4,0.2-0.9,0.2-1.2
			c0-0.1,0-0.1,0-0.2l0-0.1c0-0.1-0.1-0.2-0.2-0.2c-1-0.3-2.3-0.3-3.4-0.3c-0.4,0-0.8,0-1.2,0c-0.3,0-0.5,0-0.8,0c0,0,0,0,0,0
			l-1.3,0c0,0,0,0,0,0c-0.5,0.1-1.1,0.1-1.8,0.1c-1.3,0-2.7,0-3.4,0.5l-0.1,0.1c-0.1,0.1-0.2,0.2-0.2,0.4
			C25.5,3.4,25.7,3.9,25.9,4.3z"/>
		<path fill="#981B1E" d="M16.2,16.7c0.6,0,1.3,0,1.9,0h2.5c0,0,0.1,0,0.1,0c0.6-0.2,1.9-1.6,2.1-2.1c0,0,0,0,0,0
			c0.2-0.5-0.1-1.4-0.6-2.7c0-0.1-0.1-0.2-0.1-0.3L21,7.6c0,0,0,0,0,0l-1.2-3.1c0-0.1-0.1-0.2-0.2-0.2c-0.3-0.1-0.7-0.2-1.4-0.2
			c-1.2,0-2.7,0.2-3.2,0.3c-1.4,0.2-2.8,0.4-4.2,0.5C9.1,5,7.5,5.2,6,5.5C5.6,5.5,5.2,5.6,4.8,5.6C4,5.7,3.1,5.8,2.4,6.1
			c0,0,0,0-0.1,0C2.2,6.3,2,6.5,2.2,7.9l0.5,4.8l0.8,8.2c0,0,0,0,0,0l0.4,3.3c0,0.1,0,0.1,0.1,0.2C4,24.5,4.1,24.7,6.2,25
			c1,0.2,2.1,0.3,2.6,0.3l0,0c0.1,0,0.2,0,0.3-0.1c0.1-0.1,0.1-0.2,0.1-0.3c0-0.7-0.2-1.3-0.5-1.8c-0.1-0.1-0.1-0.3-0.1-0.4l-0.9-3
			c0,0,0,0,0,0c-0.1-0.2-0.1-0.4-0.2-0.6c-0.2-0.5-0.4-1-0.5-1.6c0.4-0.1,0.9-0.2,1.6-0.2c0,0,0.1,0,0.1,0c0.4,0.5,0.8,1.4,1.1,2.2
			c0.2,0.4,0.3,0.8,0.5,1.1l2.2,4.3c0,0,0,0,0,0l1.3,2.3c0.1,0.1,0.2,0.2,0.3,0.2c0,0,0,0,0.1,0l2.4-0.4l4.8-0.5
			c0.1,0,0.3-0.1,0.3-0.2c0.1-0.1,0-0.3,0-0.4c-1.1-1.4-2.6-2.9-4.2-4.3l-2.4-2.3c0,0,0,0,0,0c-1.8-1.4-2.5-2.2-2.8-2.6
			c0.6-0.1,1.2-0.1,2.1-0.1C14.9,16.6,15.6,16.6,16.2,16.7z M13,12.3c0,0.1,0,0.2,0,0.3c-0.3,0.1-0.6,0.1-1,0.2
			c-0.3,0-0.5,0-0.8,0.1l-3.6,0.7c-0.2-1.3-0.4-2.8-0.4-4.2c1.6,0,3.1,0.1,4.5,0.4c0.2,0,0.4,0,0.6,0.1c0.2,0,0.7,0,0.8,0.1
			C13.1,10.2,13,11.7,13,12.3z"/>
		<path fill="#981B1E" d="M62.6,19.2c-0.5-0.8-1.8-1.4-3-2c-0.5-0.2-0.9-0.4-1.2-0.6l-1.3-0.7c0.4-0.5,1.2-0.9,2-1.2
			c0.6-0.3,1.1-0.6,1.5-0.9c0.7-0.6,1.4-3.5,1.5-4.1c0-0.1,0-0.2,0-0.2c-0.6-1-2.4-2.3-3.6-3.2c-0.2-0.1-0.3-0.2-0.5-0.3
			c-0.1-0.1-0.2-0.2-0.4-0.3c-0.4-0.3-0.8-0.7-1.3-0.9c0,0-0.1,0-0.1,0h-1.5c0,0,0,0,0,0l-2.5,0.2c0,0,0,0,0,0l-6.4,0.6c0,0,0,0,0,0
			c-0.2,0-0.5,0-0.7,0.1c-0.5,0-0.9,0-1.4,0.2c0,0,0,0-0.1,0c-0.3,0.3-0.3,0.8-0.3,1.3c0,0.1,0,0.3,0,0.4c0,0,0,0,0,0L43.2,11
			c0,0,0,0,0,0c0,1.1,0,2.6-0.1,4c0,1.4-0.1,2.9-0.1,4c0,0,0,0.1,0,0.1c0.1,0.3,0.1,0.6,0.2,0.8c0.3,1.4,0.5,2.2-0.4,2.9
			c-0.1,0.1-0.2,0.2-0.2,0.3c0,0.3,0,0.8,0.1,1.3c0,0.5,0.1,0.9,0.1,1.2c0,0.2,0.1,0.3,0.3,0.4c0.3,0.1,0.7,0.1,1.1,0.1
			c1.1,0,2.4-0.2,3.2-0.3l0.2,0l7.8-0.5c0,0,0,0,0,0c0.3,0,0.7,0,1.1,0c0.1,0,0.3,0,0.4,0c0.1,0,0.3,0,0.4,0h0
			c1.1,0,1.8-0.1,2.3-0.3c0.4-0.2,1.1-1.5,1.6-2.5c0.5-1,1.2-2.3,1.3-2.8C62.7,19.4,62.7,19.3,62.6,19.2z M53,12.9
			c-0.9,0.2-2.9,0.7-3.8,0.7c-0.4-1.6-0.5-3.2-0.5-4.7c0.1,0,0.2,0,0.3-0.1c1.7,0.1,3.3,0.3,4.8,0.7c0.1,0,0.3,0.1,0.4,0.1
			c0.2,0,0.5,0.1,0.7,0.2c0,0.5-0.3,2.4-0.4,2.8c-0.1,0.1-0.5,0.1-0.7,0.2c-0.2,0-0.3,0-0.4,0.1C53.2,12.9,53.1,12.9,53,12.9z
			 M53.1,21.9c0,0-0.1,0-0.4,0c-0.1,0-0.2,0-0.3,0c-0.1,0-0.2,0-0.3,0c-0.1,0-0.2,0-0.2,0c0,0,0,0,0,0l-2.9,0.3
			c-0.3-0.9-0.7-3.7-0.6-4.6c0.5-0.1,1.1-0.2,1.6-0.2c0.4,0,0.8-0.1,1.2-0.2l1.7-0.1h0.8C53.7,18.5,53.4,21.2,53.1,21.9z"/>
		<path fill="#981B1E" d="M115.5,21.5c-0.5-0.6-1.4-0.9-2.2-1.3c-0.3-0.1-0.6-0.2-0.8-0.4l0,0l-6-2.9c0,0,0,0,0,0
			c-0.3-0.1-0.6-0.2-0.9-0.4c-0.8-0.3-1.6-0.6-2.1-1c0.6-0.8,1.5-1.6,2.2-2.2c0,0,0,0,0,0l2.2-2.1c1-0.8,2-1.5,3-2.3
			c0.5-0.4,1.1-0.8,1.6-1.2c0.1-0.1,0.2-0.2,0.2-0.3V7.4c0-0.1,0-0.2-0.1-0.3c-0.3-0.3-0.8-0.4-1.3-0.6c-0.2,0-0.3-0.1-0.4-0.1
			c-0.2-0.1-0.5-0.2-0.7-0.2c-1.4-0.5-3.1-1-4.6-1c-0.1,0-0.1,0-0.2,0.1l-1.5,1c0,0,0,0,0,0l-3.1,2.5c0,0,0,0,0,0l-2.8,2.9
			c-0.5-0.4-1.1-1.1-1.7-2l-0.8-1.3c0-0.1-0.1-0.1-0.2-0.2c-0.1,0-0.2,0-0.2,0c-0.4,0-1.1,0.2-1.8,0.5c-0.1,0-0.2,0.1-0.2,0.1
			c-0.7,0.2-1.4,0.5-2.1,0.7c-1,0.3-2,0.7-3,0.9c-0.1,0-0.2,0.1-0.2,0.2l-0.1,0.2c-0.1,0.1-0.1,0.3,0,0.4c0.3,0.4,0.8,0.8,1.2,1.1
			c0.1,0.1,0.3,0.2,0.4,0.3l2.9,2.2c0,0,0,0,0,0c0.1,0.1,0.3,0.2,0.4,0.3c0.3,0.2,0.8,0.5,1,0.8c-0.6,1.1-1.5,2-2.3,2.9
			c-0.5,0.5-1,1.1-1.4,1.6c-0.1,0.2-0.3,0.3-0.5,0.5c-0.3,0.3-0.7,0.7-0.9,1.1l-0.1,0.1c-0.1,0.1-0.1,0.2-0.1,0.3
			c0,0.1,0.1,0.2,0.2,0.3c1.3,0.6,2.7,1,4.2,1.4c0.5,0.1,1,0.3,1.5,0.4c0,0,0,0,0,0l2.4,0.5c0.2,0,0.3,0,0.4-0.2
			c0.3-0.4,0.5-0.9,0.7-1.4c0.5-1,1-2,1.8-2.7c1.4,0.6,2.8,1.8,4.2,2.9c0.5,0.4,1,0.9,1.5,1.2c0.3,0.2,0.5,0.4,0.8,0.6
			c0.7,0.5,1.4,1,1.9,1.5c0.1,0.1,0.2,0.1,0.3,0.1c0,0,0.1,0,0.1,0c0.5-0.1,1.1-0.7,1.6-1.2c0.2-0.2,0.5-0.5,0.6-0.6
			c0.8-0.6,1.7-1.2,2.6-1.7c0.8-0.5,1.6-1,2.4-1.6c0.1-0.1,0.2-0.2,0.2-0.3v-0.1C115.6,21.6,115.5,21.5,115.5,21.5z"/>
		<path fill="#981B1E" d="M41.8,16.1c-0.7-2.2-1.3-4.1-2-5.9c-0.1-0.1-0.1-0.3-0.2-0.5c-0.2-0.6-0.4-1.2-0.8-1.6
			c-0.3-0.3-1.3-0.6-5.5-0.6c-0.5,0-0.9,0-1.2,0c-0.3,0-0.5,0-0.7,0h0c0,0,0,0,0,0l-1.8,0.1c0,0,0,0,0,0c-0.4,0.1-1,0.1-1.6,0.1
			c-1.4,0.1-2.9,0.2-3.6,0.7c-0.5,0.3-0.7,1.1-0.8,1.8c0,0.1-0.1,0.2-0.1,0.3c0,0.1-0.1,0.2-0.1,0.3c-0.2,0.7-0.5,1.7-0.3,2.3
			c0.3,0.7,0.3,1,0.2,1.5c-0.1,0.1-0.2,0.2-0.3,0.3c-0.4,0.3-0.7,0.7-0.9,1.2c-0.2,0.7-0.2,3.9,0,4.6c0.3,0.8,2.7,3.1,3.5,3.4
			c0,0,0.1,0,0.1,0l3.1,0.1c0,0,0,0,0,0h0c0.2,0,0.5,0,0.7,0c0.2,0,0.5,0,0.7,0c1.7,0,3.4,0,5-0.3c0.5-0.1,1.3-0.1,2.2-0.2
			c1.8-0.1,3.6-0.2,4.4-0.7C43.4,22,42.6,18.6,41.8,16.1z M27.2,13.1l0.1,0c2.2,0,4.1,0.4,5.9,0.7c0.3,0,0.5,0.1,0.8,0.1
			c0.6,1,1.3,3,1.4,4.3c-0.4,0.2-1,0.4-1.5,0.5c-0.3,0.1-0.6,0.1-0.9,0.2c0,0,0,0,0,0L29.7,20c0,0,0,0,0,0c-0.1,0.1-0.3,0.1-0.4,0.2
			c-0.4,0.2-0.7,0.3-1.1,0.4c-0.9-1-1-3.4-1-5.3c0-0.1,0-0.3,0-0.4C27.1,14.3,27,13.4,27.2,13.1z"/>
		<path fill="#981B1E" d="M88.3,22.9l-1.1-0.2c0.6-0.9,1.7-2,2.4-2.5c0.1-0.1,0.2-0.2,0.2-0.3c0-0.3,0.1-1,0.2-1.8
			c0.3-2.2,0.5-3.7,0.2-4.3c0,0-0.1-0.1-0.1-0.1L89.3,13c0,0,0,0,0,0c-0.2-0.2-0.5-0.4-0.7-0.6c-0.7-0.5-1.4-1-1.8-1.6
			c0.4-0.3,0.8-0.4,1.3-0.5c0.4-0.1,0.8-0.2,1.2-0.4c0.1,0,0.2-0.1,0.3-0.1c0.1-0.1,0.1-0.2,0.1-0.3c-0.3-0.9-1.2-3.1-2.1-3.7
			c-0.6-0.4-2.2-0.6-5-0.6c-0.9,0-1.7,0-2.4,0c-0.5,0-0.9,0-1.2,0c0,0,0,0,0,0l-1.5,0.1c0,0,0,0,0,0c-0.4,0.1-0.8,0.1-1.3,0.1
			c-1,0-2,0.1-2.6,0.5c-0.5,0.3-0.7,0.9-0.9,1.3c0,0.1-0.1,0.2-0.1,0.2c-0.1,0.1-0.1,0.3-0.2,0.5c-0.3,0.6-0.6,1.4-0.8,2.2
			c0,0,0,0.1,0,0.1l0.1,2c0,0,0,0,0,0l0.5,4.8c0,0,0,0,0,0c0.1,0.5,0.2,1.1,0.2,1.7c0.1,0.6,0.2,1.2,0.2,1.7c0,0.1,0.1,0.2,0.1,0.2
			c0,0,0.1,0.1,0.2,0.1c-0.1,0-0.3,0-0.4,0c-0.9,0-2,0-2.4,0.1h-1.9c0-0.9,0-2.1,0.2-3.1c0,0,0,0,0,0l0.3-4.3c0,0,0,0,0,0l0.3-6
			C69,6.9,69.3,3.1,69,2.4c0,0,0-0.1,0-0.1c-0.3-0.4-0.8-0.4-1.3-0.5c-0.2,0-0.3,0-0.4,0c-1.5-0.3-3.1-0.4-4.6-0.4
			c-0.2,0-0.3,0-0.5,0c-0.1,0-0.1,0-0.2,0l-0.1,0c-0.1,0.1-0.2,0.2-0.2,0.3c0,0.9-0.1,2.1-0.1,3.1c0,1.1-0.1,2.2-0.1,3.2
			c0,0.1,0,0.2,0.1,0.3c0.1,0.2,0.3,0.3,0.4,0.4c0.3,0.3,0.5,0.5,0.7,0.9c0.1,0.4-0.2,1.4-0.5,2c-0.1,0.3-0.2,0.6-0.3,0.8
			c0,0,0,0.1,0,0.1c0,0.7,0.1,1.8,0.1,2.9c0.1,1.1,0.1,2.2,0.1,2.9c0,0.1,0.1,0.2,0.2,0.3c0.2,0.1,0.3,0.2,0.4,0.4
			c0.1,0.2,0.2,0.4,0.4,0.5c0,0.2-0.2,0.6-0.3,0.8c-0.2,0.3-0.3,0.6-0.4,0.8c0,0,0,0.1,0,0.1c0.1,0.5,0.2,1.2,0.3,1.8
			c0.1,0.6,0.2,1.3,0.3,1.8c0,0.2,0.2,0.3,0.4,0.3c0,0,0,0,0,0c0.9,0,1.8-0.2,2.6-0.4c0.2,0,0.3-0.1,0.5-0.1l4.7-0.8l3.2-0.5
			c0.1,0,0.2-0.1,0.3-0.2c0.3-0.5,0.4-1.3,0.5-1.9c0,0,0,0,0,0v0c0-0.2-0.1-0.3-0.3-0.4c0,0,0,0,0,0c0.1,0,0.3,0,0.4,0
			c0.3,0,0.5,0,0.6,0c-0.1,0.4-0.5,1.3-0.7,1.7c-0.2,0.4-0.3,0.7-0.4,0.9c0,0,0,0,0,0c0,0,0,0,0,0c0,0,0,0,0,0c0,0-0.1,0-0.2,0
			l-0.1,0c-0.1,0-0.3,0.1-0.3,0.2c-0.1,0.1-0.1,0.3,0,0.4c0.1,0.1,0.2,0.3,0.3,0.5c0.1,0.2,0.2,0.4,0.3,0.5c0,0,0.1,0.1,0.1,0.1
			c0.1,0.1,0.3,0.1,0.7,0.1c0.8,0,2.1-0.2,2.5-0.2c1.9-0.3,4.1-0.3,6.1-0.3c0.4,0,0.7,0,1.1,0c0.6,0,1.3,0,1.9,0
			c0.1,0,0.2,0,0.3-0.1c0.1-0.1,0.3-0.3,0.6-0.5c0.3-0.3,0.5-0.5,0.6-0.6c0.1-0.1,0.1-0.2,0.1-0.4C88.5,23,88.4,22.9,88.3,22.9z
			 M83.3,11.2c0.1,0.3,0.1,0.5,0.2,0.7l0.1,0.4c0.6,2,1.3,4.8,1.3,7c-0.5,0.1-1,0.2-1.5,0.2c-0.7,0.1-1.4,0.2-2.1,0.4c0,0,0,0,0,0
			L79,20.5c-0.9-1.5-1.6-3.1-2.3-4.9l-0.2-0.4c-0.1-0.2-0.1-0.3-0.2-0.5c-0.2-0.6-0.5-1.1-0.5-1.8c0.2-0.2,0.5-0.4,0.9-0.6
			c0.1-0.1,0.3-0.2,0.5-0.2c1.1-0.6,2.4-1.3,4.2-2.1l1.4-0.5C83,9.9,83.2,10.6,83.3,11.2z"/>
	</g>
	<g>
		<path fill-rule="evenodd" clip-rule="evenodd" fill="#FFFFFF" d="M74.7,21c-0.6-0.2-4-0.2-4.7,0h-2.3c-0.1-1.1,0-2.5,0.2-3.5
			c0.1-1.4,0.2-2.9,0.3-4.3c0.1-2,0.2-4,0.3-6c0.1-0.7,0.4-4.3,0.2-4.9c-0.2-0.3-1-0.3-1.5-0.3c-1.5-0.3-3.3-0.5-5-0.4
			c0,0-0.1,0-0.1,0C62,3.5,61.9,6,61.9,7.9c0.5,0.6,0.8,0.7,1.2,1.4c0.3,0.8-0.6,2.4-0.8,3.1c0.1,1.4,0.2,4.4,0.3,5.7
			c0.5,0.3,0.4,0.7,0.9,1.1c0.2,0.4-0.6,1.4-0.7,1.9c0.1,1,0.5,2.5,0.6,3.5c1.1,0,2.1-0.3,3-0.5c1.6-0.3,3.2-0.5,4.7-0.8
			c1.1-0.2,2.1-0.3,3.2-0.5C74.5,22.3,74.7,21.7,74.7,21L74.7,21z M29,4.4c1.8-0.1,3.5-0.2,5.3-0.2c0.9,0,1.8,0,2.7,0
			c0.2-0.1,0.5-1.5,0.5-1.9c0,0,0-0.1,0-0.1C36,1.8,34,1.9,32.2,1.9c-0.4,0-0.9,0-1.3,0c-1.4,0.2-4-0.1-5,0.5c0,0-0.1,0.1-0.1,0.1
			c0.1,0.8,0.5,1.4,0.8,2C27.1,4.8,28.4,4.5,29,4.4z M18.1,16.1h2.5c0.4-0.2,1.7-1.4,1.8-1.9c0.2-0.5-0.5-2.3-0.7-2.8
			c-0.4-1.3-0.8-2.6-1.2-3.9c-0.4-1-0.8-2.1-1.2-3.1c-0.7-0.4-3.6,0-4.5,0.1c-3,0.5-6.1,0.5-8.9,1.1C4.9,5.8,3.5,5.8,2.6,6.2
			c-0.2,0.2-0.1,1.1,0,1.4c0.2,1.6,0.3,3.2,0.5,4.8c0.3,2.7,0.5,5.5,0.8,8.2c0.1,1.1,0.3,2.2,0.4,3.3c0.2,0.3,3.8,0.7,4.5,0.7
			c0-0.8-0.4-1.5-0.6-2.1c-0.3-1-0.6-2-0.9-3C7,18.7,6.6,17.9,6.5,17c0.6-0.2,1.4-0.3,2.3-0.3c0.7,0.7,1.3,2.5,1.8,3.5
			c0.7,1.4,1.5,2.9,2.2,4.3c0.4,0.8,0.9,1.5,1.3,2.3c0.8-0.1,1.6-0.3,2.4-0.4c1.6-0.2,3.2-0.3,4.8-0.5c-1.1-1.5-2.7-3-4.2-4.2
			c-0.8-0.8-1.6-1.5-2.4-2.3c-0.7-0.6-2.8-2.3-3.1-3c0-0.1-0.1-0.1-0.1-0.2C13.5,15.9,16,16.1,18.1,16.1z M13.4,12.6
			c-0.5,0.3-1.4,0.2-2.1,0.4c-1.3,0.2-2.5,0.5-3.8,0.7H7.2C7,12.2,6.7,10.5,6.8,8.8c0.1,0,0.2-0.1,0.3-0.1c1.6,0,3.2,0.1,4.7,0.4
			c0.5,0.1,1.3,0,1.6,0.3C13.6,9.7,13.4,12.1,13.4,12.6z M58.2,16.8c-0.5-0.3-0.9-0.6-1.4-0.8c0-0.1-0.1-0.2-0.1-0.2
			c0.6-1,2.8-1.7,3.8-2.4c0.5-0.4,1.2-3,1.3-3.9c-0.6-1-2.9-2.7-3.9-3.4c-0.4-0.3-1-1-1.6-1.1h-1.5c-0.8,0.1-1.7,0.1-2.5,0.2
			c-2.1,0.2-4.3,0.4-6.4,0.6c-0.7,0.1-1.4,0-2,0.3c-0.3,0.2-0.1,1-0.2,1.4c0,1.2-0.1,2.4-0.1,3.5c0,2.2-0.2,5.9-0.2,8
			c0.3,1.6,1,3-0.3,4.1c0,0.5,0.2,1.9,0.2,2.5c1.1,0.3,3.3-0.1,4.4-0.3c2.6-0.2,5.2-0.4,7.9-0.5c1-0.2,3.3,0.1,4-0.3
			c0.5-0.3,2.6-4.3,2.8-5C61.7,18.2,59.3,17.4,58.2,16.8z M53.4,22c-0.2,0.3-1.1,0.2-1.5,0.2c-1.1,0.1-2.2,0.2-3.2,0.3
			c-0.3-0.5-1-4.5-0.7-5.4c1-0.2,2.1-0.3,3.2-0.5c0.6,0,1.2-0.1,1.7-0.1h1.2C54.1,17.7,53.8,21.1,53.4,22z M54.7,12.6
			c-0.2,0.3-0.9,0.3-1.3,0.4c-0.9,0.2-3.6,0.9-4.4,0.8c-0.4-1.6-0.6-3.5-0.6-5.4c0.2-0.1,0.4-0.1,0.6-0.2c1.8,0.1,3.5,0.3,4.9,0.7
			C54.2,9,55,9.1,55.2,9.4C55.3,9.7,54.8,12.3,54.7,12.6z M89.4,19.6c0-1,0.8-5.2,0.4-5.9c-0.2-0.2-0.5-0.4-0.7-0.6
			c-0.9-0.8-2.2-1.6-2.8-2.5c0.8-0.9,1.8-0.7,2.9-1.3h0.1c-0.3-1-1.2-2.9-2-3.4c-1.1-0.7-6.3-0.5-8.4-0.5c-0.5,0-1,0.1-1.5,0.1
			c-1.2,0.2-2.9,0-3.8,0.5C73.2,6.3,73,7,72.7,7.4c-0.3,0.8-0.8,1.6-1,2.5c0,0.7,0.1,1.3,0.1,2c0.2,1.6,0.4,3.2,0.5,4.8
			c0.2,1,0.3,2.3,0.5,3.3c0.5,0.4,2.4-0.1,3.3,0.3c0.3,0.4-0.9,2.6-1,3.2c-0.3,0.2-0.1,0.2-0.6,0.2c0.1,0.2,0.5,0.8,0.6,1
			c0.2,0.2,2.4-0.1,2.8-0.2c2.7-0.5,6.1-0.3,9.1-0.3c0.2-0.2,1-0.9,1.2-1.1c-0.5-0.1-1.1-0.2-1.6-0.3C87.1,21.7,88.5,20.3,89.4,19.6
			z M85.3,19.3C85.3,19.4,85.3,19.4,85.3,19.3c-1.3,0.3-2.6,0.4-3.8,0.7c-0.9,0.2-1.7,0.5-2.6,0.7c-1.1-1.7-1.9-3.7-2.7-5.7
			c-0.3-0.7-0.8-1.6-0.8-2.5c0.4-0.5,1-0.7,1.5-1c1.3-0.8,2.8-1.5,4.2-2.1c0.6-0.2,1.1-0.4,1.7-0.6c0.6,0.5,0.8,1.9,1,2.8
			C84.4,13.7,85.3,16.9,85.3,19.3z M112.3,20c-2-1-4-2-6-2.9c-1-0.5-2.7-0.9-3.4-1.7c0.6-0.9,1.6-1.8,2.5-2.5
			c0.7-0.7,1.5-1.4,2.2-2.1c1.5-1.2,3.1-2.3,4.6-3.4V7.2c-0.4-0.4-1-0.4-1.6-0.6c-1.4-0.4-3.5-1.3-5.2-1.2c-0.5,0.3-1,0.7-1.5,1
			c-1,0.8-2.1,1.7-3.1,2.5c-1,1.1-2,2.1-3,3.2c-0.8-0.5-1.6-1.5-2-2.3c-0.3-0.4-0.5-0.9-0.8-1.3c-0.3-0.1-1.7,0.4-2,0.5
			c-1.7,0.5-3.4,1.2-5,1.6c0,0.1-0.1,0.1-0.1,0.2c0.4,0.5,1,0.9,1.5,1.3c1,0.7,1.9,1.5,2.9,2.2c0.5,0.3,1.5,0.8,1.6,1.4
			c-1,1.8-2.6,3.2-3.9,4.8c-0.4,0.5-1.1,1-1.4,1.7c0,0-0.1,0.1-0.1,0.1c1.7,0.8,3.7,1.2,5.6,1.7c0.8,0.2,1.6,0.4,2.4,0.5
			c0.9-1.5,1.5-3.2,2.8-4.3c2,0.8,4.2,3,6,4.3c0.9,0.7,2.1,1.3,2.8,2.2c0.7-0.2,1.6-1.3,2.1-1.7c1.6-1.2,3.3-2.2,4.9-3.3v-0.1
			C114.5,20.8,113.2,20.4,112.3,20z M39.4,10.1c-0.2-0.5-0.4-1.6-0.8-1.9c-0.7-0.6-5.7-0.5-7.2-0.5c-0.6,0-1.2,0.1-1.8,0.1
			c-1.4,0.2-4.1,0.1-5,0.8c-0.4,0.3-0.6,1.3-0.8,1.9c-0.2,0.6-0.6,1.8-0.4,2.4c0.3,0.7,0.4,1.2,0.2,1.8c-0.4,0.5-0.9,0.8-1.1,1.3
			c-0.2,0.6-0.2,3.7,0,4.4c0.2,0.7,2.6,2.9,3.2,3.1c1,0,2.1,0.1,3.1,0.1c2.2,0,4.5,0,6.5-0.3c1.7-0.3,5.4-0.1,6.4-0.8
			c1.4-0.9,0.1-5.2-0.3-6.5C40.8,13.9,40.2,12,39.4,10.1z M33,19.1c-1.1,0.4-2.2,0.7-3.2,1.1c-0.5,0.2-1.1,0.6-1.8,0.6
			c-1.1-1.1-1.2-3.7-1.3-5.7c0-0.9-0.1-2.1,0.3-2.5c0.1,0,0.2-0.1,0.3-0.1c2.6,0,4.8,0.5,6.9,0.8c0.6,1,1.5,3.4,1.5,4.9
			C35.1,18.7,33.9,18.8,33,19.1z"/>
	</g>
</g>
</svg>
