<?xml version="1.0" encoding="utf-8"?>
<!-- Generator: Adobe Illustrator 18.0.0, SVG Export Plug-In . SVG Version: 6.00 Build 0)  -->
<!DOCTYPE svg PUBLIC "-//W3C//DTD SVG 1.1//EN" "http://www.w3.org/Graphics/SVG/1.1/DTD/svg11.dtd">
<svg version="1.1" id="stars" xmlns="http://www.w3.org/2000/svg" xmlns:xlink="http://www.w3.org/1999/xlink" x="0px" y="0px"
	 width="16px" height="48px" viewBox="0 0 28 84" enable-background="new 0 0 28 84" xml:space="preserve">
<path id="star-gold_1_" fill="#F6B702" d="M21,82c-0.2,0-0.3,0-0.5-0.1L14,78.2l-6.5,3.7c-0.3,0.2-0.7,0.2-1.1,0
	c-0.3-0.2-0.5-0.6-0.4-1l0.9-7.5l-4.7-4.7c-0.3-0.3-0.4-0.7-0.2-1c0.1-0.4,0.4-0.6,0.8-0.7l6.5-0.9l3.8-6.6c0.4-0.6,1.4-0.6,1.7,0
	l3.8,6.6l6.5,0.9c0.4,0.1,0.7,0.3,0.8,0.7c0.1,0.4,0,0.8-0.2,1L21,73.4l0.9,7.5c0,0.4-0.1,0.7-0.4,1C21.4,81.9,21.2,82,21,82z"/>
<path id="star-darkgray_1_" fill="#757575" d="M21,54c-0.2,0-0.3,0-0.5-0.1L14,50.2l-6.5,3.7c-0.3,0.2-0.7,0.2-1.1,0
	c-0.3-0.2-0.5-0.6-0.4-1l0.9-7.5l-4.7-4.7c-0.3-0.3-0.4-0.7-0.2-1c0.1-0.4,0.4-0.6,0.8-0.7l6.5-0.9l3.8-6.6c0.4-0.6,1.4-0.6,1.7,0
	l3.8,6.6l6.5,0.9c0.4,0.1,0.7,0.3,0.8,0.7c0.1,0.4,0,0.8-0.2,1L21,45.4l0.9,7.5c0,0.4-0.1,0.7-0.4,1C21.4,53.9,21.2,54,21,54z"/>
<path id="star-lightgray" fill="#CCCCCC" d="M21,26c-0.2,0-0.3,0-0.5-0.1L14,22.2l-6.5,3.7c-0.3,0.2-0.7,0.2-1.1,0
	c-0.3-0.2-0.5-0.6-0.4-1l0.9-7.5l-4.7-4.7c-0.3-0.3-0.4-0.7-0.2-1c0.1-0.4,0.4-0.6,0.8-0.7l6.5-0.9l3.8-6.6c0.4-0.6,1.4-0.6,1.7,0
	l3.8,6.6l6.5,0.9c0.4,0.1,0.7,0.3,0.8,0.7c0.1,0.4,0,0.8-0.2,1L21,17.4l0.9,7.5c0,0.4-0.1,0.7-0.4,1C21.4,25.9,21.2,26,21,26z"/>
</svg>
