<?xml version="1.0" encoding="utf-8"?>
<!-- Generator: Adobe Illustrator 18.0.0, SVG Export Plug-In . SVG Version: 6.00 Build 0)  -->
<!DOCTYPE svg PUBLIC "-//W3C//DTD SVG 1.1//EN" "http://www.w3.org/Graphics/SVG/1.1/DTD/svg11.dtd">
<svg version="1.1" id="meatball" xmlns="http://www.w3.org/2000/svg" xmlns:xlink="http://www.w3.org/1999/xlink" x="0px" y="0px"
	 width="90px" height="90px" viewBox="0 0 90 90" enable-background="new 0 0 90 90" xml:space="preserve">
<g>
	<g>
		<g>
			<path fill-rule="evenodd" clip-rule="evenodd" fill="#ED2D30" d="M45,89.2C20.6,89.2,0.8,69.4,0.8,45S20.6,0.8,45,0.8
				S89.2,20.6,89.2,45S69.4,89.2,45,89.2z"/>
			<g>
				<path fill="#971B1E" d="M45,1.5C69,1.5,88.5,21,88.5,45C88.5,69,69,88.5,45,88.5S1.5,69,1.5,45C1.5,21,21,1.5,45,1.5 M45,0
					C20.1,0,0,20.1,0,45s20.1,45,45,45s45-20.1,45-45S69.9,0,45,0L45,0z"/>
			</g>
		</g>
		<g>
			<path fill-rule="evenodd" clip-rule="evenodd" fill="#8A181A" d="M45,82.4C24.4,82.4,7.6,65.6,7.6,45S24.4,7.6,45,7.6
				S82.4,24.4,82.4,45S65.6,82.4,45,82.4z"/>
			<g>
				<path fill="#971B1E" d="M45,8.4c20.2,0,36.6,16.4,36.6,36.6c0,20.2-16.4,36.6-36.6,36.6S8.4,65.2,8.4,45
					C8.4,24.8,24.8,8.4,45,8.4 M45,6.9C23.9,6.9,6.9,23.9,6.9,45c0,21.1,17.1,38.1,38.1,38.1c21.1,0,38.1-17.1,38.1-38.1
					C83.1,23.9,66.1,6.9,45,6.9L45,6.9z"/>
			</g>
		</g>
	</g>
	<g>
		<g>
			<g>
				<path fill-rule="evenodd" clip-rule="evenodd" fill="#E2231A" d="M47.3,84.9c-5.2-11.9-11.1-24.7-16.7-36l-0.1-0.3l-0.3,0
					c-0.1,0-0.2,0-0.3,0c-0.4,0-0.7,0-1.2,0.1l-0.5,0.1l0.1,0.5c1.8,8.1,6.2,21.3,9.2,28.5c-11.4-2.5-19.7-4.7-26.9-7.2
					C9,52.5,7.6,32.2,6.8,11.9c15.8-2.6,44.1-7,61.3-7.6c4.9,10.3,9.5,23.9,11.8,31.1c0.1,0.3,0.3,0.8,0.4,1.2
					c0.3,1,0.9,2.7,0.9,3.1c-0.4,1.3-10,8.9-11.9,8.9h-0.1c-6.1,0-14.5-0.4-19.8-0.8l-1.6-0.1l1.2,1c4.1,3.3,8.2,6.7,12.4,10.1
					c8.2,6.7,16.8,13.6,25.4,20.8C73.4,82.2,61.2,83.8,47.3,84.9z M28.5,24.8c0,2.9,0.3,5.9,1,8.9l0.1,0.4l0.5-0.1
					c5-0.7,8.8-1.4,12.8-2.6l0.3-0.1l0.1-0.3c0.3-1.2,0.4-2.6,0.4-4.6l0-0.4L43.3,26c-3.4-1-9-1.7-14.2-1.7l-0.5,0L28.5,24.8z"/>
			</g>
			<g>
				<path fill="#630D0D" d="M67.7,4.8C72.6,15,77,28.4,79.3,35.6c0.1,0.3,0.3,0.8,0.4,1.2c0.3,0.8,0.8,2.3,0.9,2.8
					c-0.9,1.6-9.7,8.4-11.4,8.5l-0.1,0c-6,0-14.5-0.4-19.8-0.8l-3.1-0.2l2.4,2c4.1,3.3,8.2,6.7,12.4,10.1c8,6.5,16.2,13.2,24.5,20.1
					c-12.8,2.4-24.6,3.9-38,4.9c-5.1-11.9-11-24.5-16.5-35.7l-0.3-0.5l-0.6,0c-0.1,0-0.2,0-0.3,0c-0.4,0-0.8,0-1.3,0.1l-1,0.2l0.2,1
					c1.7,7.8,5.9,20.3,8.9,27.7C26,74.7,18,72.6,11.1,70.2c-1.7-17.9-3-37.8-3.9-57.9C23,9.7,50.7,5.4,67.7,4.8 M29.2,34.7l0.9-0.1
					c5.1-0.7,8.8-1.4,12.9-2.6l0.6-0.2l0.1-0.6c0.3-1.2,0.4-2.7,0.4-4.7l0-0.7l-0.7-0.2c-4.2-1.3-10.2-1.7-14.4-1.8l-1,0l0,1
					c0,2.9,0.3,5.9,1,9L29.2,34.7 M68.3,3.8C52,4.2,24.7,8.3,6.2,11.5c0.8,19.4,2.1,40,4,59.5c8.4,3,17.9,5.3,28.2,7.6
					c-3-6.8-7.7-20.8-9.6-29.3c0.4-0.1,0.7-0.1,1.1-0.1c0.1,0,0.2,0,0.2,0c5.7,11.5,11.6,24.3,16.8,36.3c12.8-0.9,25.7-2.5,40.9-5.4
					C74.6,69,61.7,58.6,49.3,48.4c5.5,0.4,13.9,0.8,19.8,0.8c0,0,0.1,0,0.1,0c2.1,0,12.1-7.9,12.4-9.3c0.1-0.6-0.9-3.3-1.3-4.6
					C77,24.9,72.6,12.7,68.3,3.8L68.3,3.8z M30,33.5c-0.6-2.5-1-5.6-1-8.8c4.7,0,10.4,0.6,14.1,1.7c0,1.6-0.1,3.2-0.4,4.5
					C38.4,32.2,34.5,33,30,33.5L30,33.5z"/>
			</g>
		</g>
		<path fill-rule="evenodd" clip-rule="evenodd" fill="#FFFFFF" stroke="#AC162C" stroke-miterlimit="10" d="M68.5,42.9
			c2.4-1.3,4-2.8,5.2-5c-1.8-8.3-4.7-17-9.4-27.9c-18.8,1.3-36.5,3.4-51.8,6.5c0.8,14.8,2.6,33.7,4.5,49.3c3.3,1.3,9.3,3.7,12.7,4.4
			c-2.3-7.2-5.1-19-6.1-24.5c3-0.2,6.1-0.3,9.2-0.5c5.5,9.4,12,21.2,17.1,31.9c6.5-0.5,12.6-1.2,18.9-2.3c-4.7-4.9-9.1-9.1-13-13
			C50,56.1,45.1,51.3,40.4,46.1l-1.1-1.3c6.7-0.4,13.5-0.8,20.3-1.3C62.3,43.4,65.3,43.2,68.5,42.9z M24.6,22.1l0-1.2l1.2-0.1
			c1.6-0.1,3.3-0.2,5-0.2c5.6,0,11.1,0.7,16.1,2.1l0.8,0.2l0.2,0.8c0.7,3.1,0.8,7.1,0.2,10.6l-0.2,0.9L47,35.5
			c-6.4,1.3-13,2.4-19.5,3.4l-1.3,0.2L26,37.8C24.9,31.8,24.5,27.4,24.6,22.1z"/>
	</g>
</g>
</svg>
